<svg width="216" height="118" viewBox="0 0 216 118" fill="none" xmlns="http://www.w3.org/2000/svg">
<path d="M41.4572 6.26196C41.3887 5.57179 41.095 5.03563 40.5759 4.65347C40.0569 4.27131 39.3525 4.08023 38.4626 4.08023C37.858 4.08023 37.3475 4.16579 36.9312 4.3369C36.5148 4.50232 36.1954 4.73332 35.9729 5.02992C35.7562 5.32653 35.6478 5.66305 35.6478 6.03951C35.6364 6.35322 35.702 6.62701 35.8446 6.86087C35.9929 7.09473 36.1954 7.29721 36.452 7.46833C36.7087 7.63374 37.0053 7.77919 37.3418 7.90468C37.6784 8.02446 38.0377 8.12713 38.4199 8.21268L39.9941 8.58914C40.7585 8.76026 41.46 8.98841 42.0989 9.27361C42.7377 9.5588 43.291 9.90959 43.7587 10.326C44.2264 10.7424 44.5886 11.2329 44.8453 11.7976C45.1077 12.3623 45.2417 13.0096 45.2474 13.7397C45.2417 14.8121 44.9679 15.7418 44.426 16.5289C43.8899 17.3104 43.1142 17.9178 42.0989 18.3513C41.0893 18.7791 39.8715 18.993 38.4455 18.993C37.031 18.993 35.7989 18.7763 34.7494 18.3428C33.7056 17.9093 32.89 17.2676 32.3025 16.4177C31.7207 15.5621 31.4155 14.5041 31.387 13.2435H34.9719C35.0118 13.831 35.1801 14.3215 35.4767 14.7151C35.779 15.103 36.1811 15.3967 36.683 15.5963C37.1907 15.7903 37.7639 15.8872 38.4028 15.8872C39.0302 15.8872 39.5749 15.796 40.0369 15.6135C40.5046 15.4309 40.8668 15.1771 41.1235 14.852C41.3802 14.5269 41.5085 14.1533 41.5085 13.7312C41.5085 13.3376 41.3916 13.0068 41.1577 12.7387C40.9296 12.4706 40.593 12.2425 40.1481 12.0542C39.7089 11.866 39.1699 11.6949 38.5311 11.5409L36.6231 11.0618C35.1458 10.7024 33.9794 10.1406 33.1238 9.37628C32.2682 8.61196 31.8433 7.58241 31.849 6.28763C31.8433 5.22671 32.1256 4.29983 32.696 3.50699C33.2721 2.71415 34.0621 2.09528 35.066 1.65038C36.0699 1.20548 37.2106 0.983025 38.4883 0.983025C39.7888 0.983025 40.9239 1.20548 41.8935 1.65038C42.8689 2.09528 43.6275 2.71415 44.1694 3.50699C44.7112 4.29983 44.9907 5.21815 45.0078 6.26196H41.4572Z" fill="#3D3E47"/>
<path d="M47.6708 18.7449V5.60316H51.3156V18.7449H47.6708ZM49.5018 3.90911C48.9599 3.90911 48.495 3.72944 48.1072 3.3701C47.725 3.00505 47.5339 2.5687 47.5339 2.06106C47.5339 1.55912 47.725 1.12847 48.1072 0.76913C48.495 0.404082 48.9599 0.221558 49.5018 0.221558C50.0436 0.221558 50.5057 0.404082 50.8878 0.76913C51.2757 1.12847 51.4696 1.55912 51.4696 2.06106C51.4696 2.5687 51.2757 3.00505 50.8878 3.3701C50.5057 3.72944 50.0436 3.90911 49.5018 3.90911Z" fill="#3D3E47"/>
<path d="M54.2353 18.7449V5.60316H57.7089V7.92179H57.8629C58.1367 7.15176 58.593 6.5443 59.2319 6.0994C59.8707 5.6545 60.635 5.43205 61.5248 5.43205C62.426 5.43205 63.1932 5.65735 63.8264 6.10795C64.4595 6.55286 64.8816 7.15747 65.0926 7.92179H65.2295C65.4976 7.16888 65.9824 6.56712 66.684 6.11651C67.3913 5.6602 68.2269 5.43205 69.1908 5.43205C70.4172 5.43205 71.4125 5.82276 72.1768 6.60419C72.9468 7.37992 73.3319 8.48077 73.3319 9.90673V18.7449H69.6956V10.6254C69.6956 9.89533 69.5017 9.34776 69.1138 8.98271C68.726 8.61766 68.2411 8.43514 67.6594 8.43514C66.9977 8.43514 66.4815 8.64618 66.1107 9.06827C65.74 9.48465 65.5546 10.0351 65.5546 10.7195V18.7449H62.0211V10.5484C62.0211 9.90388 61.8357 9.39053 61.4649 9.00837C61.0999 8.62622 60.6179 8.43514 60.019 8.43514C59.614 8.43514 59.249 8.53781 58.9239 8.74315C58.6045 8.94278 58.3506 9.22512 58.1624 9.59017C57.9742 9.94951 57.8801 10.3716 57.8801 10.8564V18.7449H54.2353Z" fill="#3D3E47"/>
<path d="M84.6384 13.1494V5.60316H88.2831V18.7449H84.7838V16.3578H84.6469C84.3503 17.1278 83.8569 17.7467 83.1668 18.2144C82.4823 18.6821 81.6467 18.916 80.6599 18.916C79.7815 18.916 79.0086 18.7164 78.3413 18.3171C77.6739 17.9178 77.152 17.3503 76.7756 16.6145C76.4048 15.8787 76.2166 14.9974 76.2109 13.9707V5.60316H79.8557V13.3205C79.8614 14.0962 80.0696 14.7094 80.4802 15.16C80.8909 15.6106 81.4413 15.8359 82.1315 15.8359C82.5707 15.8359 82.9814 15.7361 83.3635 15.5365C83.7457 15.3311 84.0537 15.0288 84.2876 14.6295C84.5271 14.2303 84.6441 13.7369 84.6384 13.1494Z" fill="#3D3E47"/>
<path d="M94.8433 1.22259V18.7449H91.1985V1.22259H94.8433Z" fill="#3D3E47"/>
<path d="M101.51 18.993C100.672 18.993 99.9247 18.8476 99.2688 18.5567C98.6129 18.2601 98.0938 17.8237 97.7116 17.2476C97.3352 16.6658 97.147 15.9414 97.147 15.0744C97.147 14.3443 97.281 13.7312 97.5491 13.2349C97.8172 12.7387 98.1822 12.3394 98.6442 12.0371C99.1062 11.7348 99.631 11.5067 100.218 11.3527C100.812 11.1987 101.433 11.0903 102.084 11.0275C102.848 10.9477 103.464 10.8735 103.932 10.8051C104.399 10.7309 104.739 10.6226 104.95 10.48C105.161 10.3374 105.266 10.1263 105.266 9.84685V9.79551C105.266 9.25364 105.095 8.83441 104.753 8.53781C104.417 8.2412 103.937 8.0929 103.316 8.0929C102.66 8.0929 102.138 8.23835 101.75 8.52925C101.362 8.81444 101.105 9.17379 100.98 9.60728L97.609 9.3335C97.7801 8.53495 98.1166 7.84479 98.6186 7.26299C99.1205 6.67549 99.7679 6.22488 100.561 5.91117C101.359 5.59176 102.283 5.43205 103.333 5.43205C104.063 5.43205 104.762 5.5176 105.429 5.68872C106.102 5.85984 106.698 6.12507 107.217 6.48441C107.742 6.84376 108.155 7.30577 108.458 7.87045C108.76 8.42943 108.911 9.09964 108.911 9.88107V18.7449H105.455V16.9225H105.352C105.141 17.3332 104.859 17.6954 104.505 18.0091C104.151 18.3171 103.726 18.5595 103.23 18.7363C102.734 18.9074 102.161 18.993 101.51 18.993ZM102.554 16.4776C103.09 16.4776 103.564 16.3721 103.974 16.161C104.385 15.9443 104.707 15.6534 104.941 15.2883C105.175 14.9233 105.292 14.5098 105.292 14.0477V12.6532C105.178 12.7273 105.021 12.7957 104.822 12.8585C104.628 12.9155 104.408 12.9697 104.163 13.0211C103.917 13.0667 103.672 13.1095 103.427 13.1494C103.182 13.1836 102.959 13.215 102.76 13.2435C102.332 13.3062 101.958 13.4061 101.639 13.543C101.319 13.6798 101.071 13.8652 100.894 14.0991C100.718 14.3272 100.629 14.6124 100.629 14.9547C100.629 15.4509 100.809 15.8302 101.168 16.0926C101.533 16.3493 101.995 16.4776 102.554 16.4776Z" fill="#3D3E47"/>
<path d="M116.581 18.9588C115.583 18.9588 114.679 18.7021 113.869 18.1888C113.065 17.6697 112.426 16.9082 111.953 15.9044C111.485 14.8948 111.251 13.657 111.251 12.1911C111.251 10.6853 111.494 9.43331 111.978 8.43514C112.463 7.43125 113.108 6.6812 113.912 6.18496C114.722 5.68302 115.609 5.43205 116.573 5.43205C117.309 5.43205 117.922 5.55753 118.412 5.8085C118.909 6.05377 119.308 6.36178 119.61 6.73253C119.918 7.09758 120.152 7.45692 120.312 7.81056H120.423V1.22259H124.059V18.7449H120.466V16.6402H120.312C120.141 17.0052 119.898 17.3674 119.585 17.7267C119.277 18.0804 118.874 18.3741 118.378 18.608C117.888 18.8419 117.289 18.9588 116.581 18.9588ZM117.737 16.0584C118.324 16.0584 118.82 15.8987 119.225 15.5792C119.636 15.2541 119.95 14.8007 120.166 14.2189C120.389 13.6371 120.5 12.9555 120.5 12.174C120.5 11.3926 120.392 10.7138 120.175 10.1377C119.958 9.56165 119.644 9.11675 119.234 8.80304C118.823 8.48932 118.324 8.33247 117.737 8.33247C117.138 8.33247 116.633 8.49503 116.222 8.82015C115.811 9.14527 115.501 9.59587 115.29 10.172C115.079 10.7481 114.973 11.4154 114.973 12.174C114.973 12.9383 115.079 13.6143 115.29 14.2018C115.506 14.7835 115.817 15.2399 116.222 15.5707C116.633 15.8958 117.138 16.0584 117.737 16.0584Z" fill="#3D3E47"/>
<path d="M132.994 19.0016C131.665 19.0016 130.515 18.7192 129.546 18.1545C128.582 17.5841 127.837 16.7913 127.313 15.776C126.788 14.755 126.525 13.5715 126.525 12.2254C126.525 10.8678 126.788 9.68143 127.313 8.66614C127.837 7.64515 128.582 6.85231 129.546 6.28763C130.515 5.71724 131.665 5.43205 132.994 5.43205C134.323 5.43205 135.469 5.71724 136.433 6.28763C137.403 6.85231 138.15 7.64515 138.675 8.66614C139.199 9.68143 139.462 10.8678 139.462 12.2254C139.462 13.5715 139.199 14.755 138.675 15.776C138.15 16.7913 137.403 17.5841 136.433 18.1545C135.469 18.7192 134.323 19.0016 132.994 19.0016ZM133.011 16.1781C133.615 16.1781 134.12 16.007 134.525 15.6648C134.93 15.3169 135.235 14.8434 135.441 14.2445C135.652 13.6456 135.757 12.964 135.757 12.1997C135.757 11.4354 135.652 10.7538 135.441 10.1549C135.235 9.55595 134.93 9.08253 134.525 8.73459C134.12 8.38665 133.615 8.21268 133.011 8.21268C132.4 8.21268 131.887 8.38665 131.471 8.73459C131.06 9.08253 130.749 9.55595 130.538 10.1549C130.333 10.7538 130.23 11.4354 130.23 12.1997C130.23 12.964 130.333 13.6456 130.538 14.2445C130.749 14.8434 131.06 15.3169 131.471 15.6648C131.887 16.007 132.4 16.1781 133.011 16.1781Z" fill="#3D3E47"/>
<path d="M141.832 18.7449V5.60316H145.365V7.89612H145.502C145.742 7.08047 146.144 6.46445 146.709 6.04807C147.273 5.62598 147.924 5.41493 148.659 5.41493C148.842 5.41493 149.039 5.42634 149.25 5.44916C149.461 5.47197 149.646 5.50335 149.806 5.54327V8.77737C149.635 8.72603 149.398 8.6804 149.096 8.64048C148.793 8.60055 148.517 8.58059 148.266 8.58059C147.73 8.58059 147.251 8.69751 146.828 8.93137C146.412 9.15953 146.081 9.47894 145.836 9.88962C145.596 10.3003 145.477 10.7737 145.477 11.3099V18.7449H141.832Z" fill="#3D3E47"/>
<path d="M162.109 18.9588C161.111 18.9588 160.207 18.7021 159.397 18.1888C158.593 17.6697 157.954 16.9082 157.48 15.9044C157.013 14.8948 156.779 13.657 156.779 12.1911C156.779 10.6853 157.021 9.43331 157.506 8.43514C157.991 7.43125 158.635 6.6812 159.44 6.18496C160.25 5.68302 161.137 5.43205 162.101 5.43205C162.836 5.43205 163.449 5.55753 163.94 5.8085C164.436 6.05377 164.836 6.36178 165.138 6.73253C165.446 7.09758 165.68 7.45692 165.839 7.81056H165.951V1.22259H169.587V18.7449H165.993V16.6402H165.839C165.668 17.0052 165.426 17.3674 165.112 17.7267C164.804 18.0804 164.402 18.3741 163.906 18.608C163.415 18.8419 162.816 18.9588 162.109 18.9588ZM163.264 16.0584C163.852 16.0584 164.348 15.8987 164.753 15.5792C165.164 15.2541 165.477 14.8007 165.694 14.2189C165.916 13.6371 166.028 12.9555 166.028 12.174C166.028 11.3926 165.919 10.7138 165.703 10.1377C165.486 9.56165 165.172 9.11675 164.761 8.80304C164.351 8.48932 163.852 8.33247 163.264 8.33247C162.665 8.33247 162.16 8.49503 161.75 8.82015C161.339 9.14527 161.028 9.59587 160.817 10.172C160.606 10.7481 160.501 11.4154 160.501 12.174C160.501 12.9383 160.606 13.6143 160.817 14.2018C161.034 14.7835 161.345 15.2399 161.75 15.5707C162.16 15.8958 162.665 16.0584 163.264 16.0584Z" fill="#3D3E47"/>
<path d="M178.573 19.0016C177.221 19.0016 176.057 18.7278 175.082 18.1802C174.112 17.6269 173.365 16.8455 172.84 15.8359C172.315 14.8206 172.053 13.62 172.053 12.2339C172.053 10.8821 172.315 9.69569 172.84 8.6747C173.365 7.65371 174.104 6.85802 175.056 6.28763C176.014 5.71724 177.138 5.43205 178.427 5.43205C179.294 5.43205 180.101 5.57179 180.848 5.85128C181.601 6.12507 182.257 6.5386 182.816 7.09187C183.381 7.64515 183.82 8.34102 184.134 9.17949C184.448 10.0123 184.604 10.9876 184.604 12.1056V13.1066H173.508V10.8479H181.174C181.174 10.3231 181.059 9.85825 180.831 9.45328C180.603 9.0483 180.287 8.73174 179.882 8.50358C179.482 8.26972 179.018 8.15279 178.487 8.15279C177.934 8.15279 177.443 8.28113 177.015 8.53781C176.593 8.78878 176.263 9.12816 176.023 9.55595C175.783 9.97803 175.661 10.4486 175.655 10.9677V13.1152C175.655 13.7654 175.775 14.3272 176.014 14.8007C176.26 15.2741 176.605 15.6391 177.05 15.8958C177.495 16.1525 178.022 16.2808 178.632 16.2808C179.037 16.2808 179.408 16.2238 179.745 16.1097C180.081 15.9956 180.369 15.8245 180.609 15.5963C180.848 15.3682 181.031 15.0887 181.156 14.7579L184.527 14.9803C184.356 15.7903 184.006 16.4976 183.475 17.1022C182.95 17.7011 182.272 18.1688 181.439 18.5053C180.612 18.8361 179.656 19.0016 178.573 19.0016Z" fill="#3D3E47"/>
<path d="M10.0702 35.5179C10.0017 34.8278 9.70799 34.2916 9.18894 33.9095C8.66989 33.5273 7.96546 33.3362 7.07566 33.3362C6.47105 33.3362 5.96055 33.4218 5.54417 33.5929C5.12778 33.7583 4.80837 33.9893 4.58591 34.2859C4.36917 34.5825 4.26079 34.919 4.26079 35.2955C4.24939 35.6092 4.31498 35.883 4.45758 36.1169C4.60588 36.3507 4.80837 36.5532 5.06504 36.7243C5.32171 36.8897 5.61832 37.0352 5.95484 37.1607C6.29137 37.2804 6.65072 37.3831 7.03288 37.4687L8.60715 37.8451C9.37146 38.0162 10.073 38.2444 10.7119 38.5296C11.3507 38.8148 11.904 39.1656 12.3717 39.582C12.8394 39.9983 13.2016 40.4889 13.4583 41.0536C13.7207 41.6182 13.8547 42.2656 13.8604 42.9957C13.8547 44.068 13.5809 44.9978 13.0391 45.7849C12.5029 46.5663 11.7272 47.1738 10.7119 47.6073C9.70229 48.0351 8.48451 48.249 7.05854 48.249C5.64398 48.249 4.41195 48.0322 3.36243 47.5987C2.31862 47.1653 1.50297 46.5236 0.915472 45.6737C0.333677 44.8181 0.0285194 43.76 0 42.4995H3.58488C3.62481 43.087 3.79308 43.5775 4.08968 43.9711C4.39198 44.3589 4.79411 44.6527 5.29605 44.8523C5.80369 45.0463 6.37693 45.1432 7.01576 45.1432C7.64319 45.1432 8.18791 45.052 8.64992 44.8694C9.11764 44.6869 9.47984 44.4331 9.73651 44.108C9.99319 43.7829 10.1215 43.4093 10.1215 42.9872C10.1215 42.5936 10.0046 42.2628 9.77074 41.9947C9.54258 41.7266 9.20605 41.4985 8.76115 41.3102C8.32195 41.122 7.78294 40.9509 7.1441 40.7969L5.23616 40.3178C3.75885 39.9584 2.59241 39.3966 1.73683 38.6323C0.881249 37.8679 0.45631 36.8384 0.462014 35.5436C0.45631 34.4827 0.738652 33.5558 1.30904 32.763C1.88513 31.9701 2.67512 31.3513 3.679 30.9064C4.68288 30.4615 5.82366 30.239 7.10132 30.239C8.40181 30.239 9.53688 30.4615 10.5065 30.9064C11.4819 31.3513 12.2405 31.9701 12.7824 32.763C13.3242 33.5558 13.6037 34.4741 13.6209 35.5179H10.0702Z" fill="#3D3E47"/>
<path d="M20.0313 48.249C19.1928 48.249 18.4456 48.1035 17.7897 47.8126C17.1337 47.516 16.6147 47.0797 16.2325 46.5036C15.8561 45.9218 15.6678 45.1974 15.6678 44.3304C15.6678 43.6003 15.8019 42.9872 16.07 42.4909C16.338 41.9947 16.7031 41.5954 17.1651 41.2931C17.6271 40.9908 18.1519 40.7627 18.7394 40.6086C19.3326 40.4546 19.9543 40.3463 20.6045 40.2835C21.3689 40.2037 21.9849 40.1295 22.4526 40.0611C22.9203 39.9869 23.2597 39.8786 23.4707 39.736C23.6818 39.5934 23.7873 39.3823 23.7873 39.1028V39.0515C23.7873 38.5096 23.6162 38.0904 23.2739 37.7938C22.9374 37.4972 22.4583 37.3489 21.8366 37.3489C21.1806 37.3489 20.6587 37.4943 20.2709 37.7852C19.883 38.0704 19.6263 38.4298 19.5008 38.8633L16.1298 38.5895C16.301 37.7909 16.6375 37.1008 17.1394 36.519C17.6414 35.9315 18.2888 35.4809 19.0816 35.1672C19.8801 34.8477 20.8042 34.688 21.8537 34.688C22.5838 34.688 23.2825 34.7736 23.9499 34.9447C24.6229 35.1158 25.219 35.381 25.738 35.7404C26.2628 36.0997 26.6763 36.5618 26.9786 37.1264C27.2809 37.6854 27.4321 38.3556 27.4321 39.137V48.0009H23.9755V46.1785H23.8729C23.6618 46.5892 23.3795 46.9514 23.0258 47.2651C22.6722 47.5731 22.2472 47.8155 21.751 47.9923C21.2548 48.1634 20.6815 48.249 20.0313 48.249ZM21.0751 45.7336C21.6113 45.7336 22.0847 45.6281 22.4954 45.417C22.906 45.2003 23.2283 44.9094 23.4622 44.5443C23.696 44.1793 23.813 43.7657 23.813 43.3037V41.9091C23.6989 41.9833 23.542 42.0517 23.3424 42.1145C23.1485 42.1715 22.9289 42.2257 22.6836 42.277C22.4383 42.3227 22.1931 42.3654 21.9478 42.4054C21.7025 42.4396 21.4801 42.471 21.2804 42.4995C20.8526 42.5622 20.479 42.662 20.1596 42.7989C19.8402 42.9358 19.5921 43.1212 19.4153 43.3551C19.2385 43.5832 19.15 43.8684 19.15 44.2106C19.15 44.7069 19.3297 45.0862 19.6891 45.3486C20.0541 45.6052 20.5161 45.7336 21.0751 45.7336Z" fill="#3D3E47"/>
<path d="M38.9439 52.929V45.8961H38.8327C38.6616 46.2612 38.4192 46.6234 38.1054 46.9827C37.7974 47.3364 37.3953 47.6301 36.8991 47.864C36.4085 48.0978 35.8096 48.2148 35.1024 48.2148C34.1042 48.2148 33.2001 47.9581 32.3902 47.4447C31.5859 46.9257 30.9471 46.1642 30.4737 45.1603C30.0059 44.1508 29.7721 42.913 29.7721 41.4471C29.7721 39.9413 30.0145 38.6893 30.4993 37.6911C30.9842 36.6872 31.6287 35.9372 32.4329 35.4409C33.2429 34.939 34.1298 34.688 35.0938 34.688C35.8296 34.688 36.4428 34.8135 36.9333 35.0645C37.4295 35.3097 37.8288 35.6178 38.1311 35.9885C38.4391 36.3536 38.673 36.7129 38.8327 37.0665H38.9867V34.8591H42.5801V52.929H38.9439ZM36.2574 45.3143C36.8449 45.3143 37.3411 45.1546 37.7461 44.8352C38.1568 44.5101 38.4705 44.0566 38.6872 43.4748C38.9097 42.8931 39.0209 42.2114 39.0209 41.43C39.0209 40.6486 38.9125 39.9698 38.6958 39.3937C38.479 38.8176 38.1653 38.3727 37.7547 38.059C37.344 37.7453 36.8449 37.5884 36.2574 37.5884C35.6585 37.5884 35.1537 37.751 34.743 38.0761C34.3323 38.4012 34.0215 38.8519 33.8104 39.4279C33.5994 40.004 33.4939 40.6714 33.4939 41.43C33.4939 42.1943 33.5994 42.8702 33.8104 43.4577C34.0272 44.0395 34.338 44.4958 34.743 44.8267C35.1537 45.1518 35.6585 45.3143 36.2574 45.3143Z" fill="#3D3E47"/>
<path d="M53.9337 42.4054V34.8591H57.5785V48.0009H54.0791V45.6138H53.9423C53.6456 46.3838 53.1523 47.0027 52.4621 47.4704C51.7776 47.9381 50.942 48.172 49.9552 48.172C49.0768 48.172 48.304 47.9724 47.6366 47.5731C46.9693 47.1738 46.4474 46.6063 46.0709 45.8705C45.7002 45.1347 45.5119 44.2534 45.5062 43.2267V34.8591H49.151V42.5765C49.1567 43.3522 49.3649 43.9654 49.7756 44.416C50.1862 44.8666 50.7367 45.0919 51.4268 45.0919C51.866 45.0919 52.2767 44.9921 52.6589 44.7924C53.041 44.5871 53.349 44.2848 53.5829 43.8855C53.8225 43.4863 53.9394 42.9929 53.9337 42.4054Z" fill="#3D3E47"/>
<path d="M66.4829 48.2575C65.1311 48.2575 63.9675 47.9838 62.9922 47.4362C62.0225 46.8829 61.2753 46.1015 60.7505 45.0919C60.2258 44.0766 59.9634 42.8759 59.9634 41.4899C59.9634 40.1381 60.2258 38.9517 60.7505 37.9307C61.2753 36.9097 62.0139 36.114 62.9665 35.5436C63.9247 34.9732 65.0484 34.688 66.3375 34.688C67.2045 34.688 68.0116 34.8278 68.7588 35.1073C69.5117 35.381 70.1676 35.7946 70.7266 36.3479C71.2913 36.9011 71.7305 37.597 72.0442 38.4355C72.3579 39.2682 72.5148 40.2436 72.5148 41.3616V42.3626H61.4179V40.1039H69.0839C69.0839 39.5791 68.9698 39.1142 68.7417 38.7093C68.5135 38.3043 68.1969 37.9877 67.792 37.7596C67.3927 37.5257 66.9278 37.4088 66.3974 37.4088C65.8441 37.4088 65.3536 37.5371 64.9258 37.7938C64.5037 38.0448 64.1729 38.3841 63.9333 38.8119C63.6937 39.234 63.5711 39.7046 63.5654 40.2236V42.3711C63.5654 43.0214 63.6852 43.5832 63.9247 44.0566C64.17 44.5301 64.5151 44.8951 64.96 45.1518C65.4049 45.4085 65.9325 45.5368 66.5428 45.5368C66.9478 45.5368 67.3185 45.4798 67.6551 45.3657C67.9916 45.2516 68.2797 45.0805 68.5192 44.8523C68.7588 44.6242 68.9413 44.3447 69.0668 44.0139L72.4378 44.2363C72.2667 45.0463 71.9159 45.7535 71.3854 46.3582C70.8607 46.9571 70.1819 47.4248 69.3491 47.7613C68.5221 48.0921 67.5667 48.2575 66.4829 48.2575Z" fill="#3D3E47"/>
<path d="M83.0812 39.3595V42.2514H75.0901V39.3595H83.0812Z" fill="#3D3E47"/>
<path d="M89.9344 48.249C89.0959 48.249 88.3487 48.1035 87.6928 47.8126C87.0368 47.516 86.5178 47.0797 86.1356 46.5036C85.7592 45.9218 85.5709 45.1974 85.5709 44.3304C85.5709 43.6003 85.705 42.9872 85.9731 42.4909C86.2411 41.9947 86.6062 41.5954 87.0682 41.2931C87.5302 40.9908 88.055 40.7627 88.6425 40.6086C89.2357 40.4546 89.8574 40.3463 90.5076 40.2835C91.272 40.2037 91.888 40.1295 92.3557 40.0611C92.8234 39.9869 93.1628 39.8786 93.3738 39.736C93.5849 39.5934 93.6904 39.3823 93.6904 39.1028V39.0515C93.6904 38.5096 93.5193 38.0904 93.1771 37.7938C92.8405 37.4972 92.3614 37.3489 91.7397 37.3489C91.0837 37.3489 90.5618 37.4943 90.174 37.7852C89.7861 38.0704 89.5294 38.4298 89.4039 38.8633L86.033 38.5895C86.2041 37.7909 86.5406 37.1008 87.0425 36.519C87.5445 35.9315 88.1919 35.4809 88.9847 35.1672C89.7833 34.8477 90.7073 34.688 91.7568 34.688C92.4869 34.688 93.1856 34.7736 93.853 34.9447C94.526 35.1158 95.1221 35.381 95.6411 35.7404C96.1659 36.0997 96.5794 36.5618 96.8817 37.1264C97.184 37.6854 97.3352 38.3556 97.3352 39.137V48.0009H93.8786V46.1785H93.776C93.5649 46.5892 93.2826 46.9514 92.9289 47.2651C92.5753 47.5731 92.1504 47.8155 91.6541 47.9923C91.1579 48.1634 90.5846 48.249 89.9344 48.249ZM90.9782 45.7336C91.5144 45.7336 91.9878 45.6281 92.3985 45.417C92.8092 45.2003 93.1314 44.9094 93.3653 44.5443C93.5991 44.1793 93.7161 43.7657 93.7161 43.3037V41.9091C93.602 41.9833 93.4451 42.0517 93.2455 42.1145C93.0516 42.1715 92.832 42.2257 92.5867 42.277C92.3414 42.3227 92.0962 42.3654 91.8509 42.4054C91.6056 42.4396 91.3832 42.471 91.1836 42.4995C90.7558 42.5622 90.3822 42.662 90.0627 42.7989C89.7433 42.9358 89.4952 43.1212 89.3184 43.3551C89.1416 43.5832 89.0532 43.8684 89.0532 44.2106C89.0532 44.7069 89.2328 45.0862 89.5922 45.3486C89.9572 45.6052 90.4192 45.7336 90.9782 45.7336Z" fill="#3D3E47"/>
<path d="M103.808 40.4033V48.0009H100.163V34.8591H103.637V37.1778H103.791C104.081 36.4134 104.569 35.8088 105.254 35.3639C105.938 34.9133 106.768 34.688 107.743 34.688C108.656 34.688 109.452 34.8877 110.13 35.2869C110.809 35.6862 111.337 36.2566 111.713 36.9981C112.09 37.7339 112.278 38.6123 112.278 39.6333V48.0009H108.633V40.2835C108.639 39.4793 108.433 38.8519 108.017 38.4012C107.601 37.9449 107.027 37.7168 106.297 37.7168C105.807 37.7168 105.373 37.8223 104.997 38.0334C104.626 38.2444 104.335 38.5524 104.124 38.9574C103.919 39.3567 103.813 39.8386 103.808 40.4033Z" fill="#3D3E47"/>
<path d="M115.151 48.0009V34.8591H118.795V48.0009H115.151ZM116.981 33.1651C116.44 33.1651 115.975 32.9854 115.587 32.6261C115.205 32.261 115.014 31.8247 115.014 31.317C115.014 30.8151 115.205 30.3845 115.587 30.0251C115.975 29.6601 116.44 29.4775 116.981 29.4775C117.523 29.4775 117.985 29.6601 118.368 30.0251C118.755 30.3845 118.949 30.8151 118.949 31.317C118.949 31.8247 118.755 32.261 118.368 32.6261C117.985 32.9854 117.523 33.1651 116.981 33.1651Z" fill="#3D3E47"/>
<path d="M133.967 34.8591L129.372 48.0009H125.266L120.671 34.8591H124.521L127.251 44.262H127.387L130.108 34.8591H133.967Z" fill="#3D3E47"/>
<path d="M141.398 48.2575C140.046 48.2575 138.882 47.9838 137.907 47.4362C136.937 46.8829 136.19 46.1015 135.665 45.0919C135.14 44.0766 134.878 42.8759 134.878 41.4899C134.878 40.1381 135.14 38.9517 135.665 37.9307C136.19 36.9097 136.929 36.114 137.881 35.5436C138.839 34.9732 139.963 34.688 141.252 34.688C142.119 34.688 142.926 34.8278 143.673 35.1073C144.426 35.381 145.082 35.7946 145.641 36.3479C146.206 36.9011 146.645 37.597 146.959 38.4355C147.273 39.2682 147.429 40.2436 147.429 41.3616V42.3626H136.333V40.1039H143.999C143.999 39.5791 143.884 39.1142 143.656 38.7093C143.428 38.3043 143.112 37.9877 142.707 37.7596C142.307 37.5257 141.843 37.4088 141.312 37.4088C140.759 37.4088 140.268 37.5371 139.84 37.7938C139.418 38.0448 139.088 38.3841 138.848 38.8119C138.608 39.234 138.486 39.7046 138.48 40.2236V42.3711C138.48 43.0214 138.6 43.5832 138.839 44.0566C139.085 44.5301 139.43 44.8951 139.875 45.1518C140.32 45.4085 140.847 45.5368 141.458 45.5368C141.862 45.5368 142.233 45.4798 142.57 45.3657C142.906 45.2516 143.194 45.0805 143.434 44.8523C143.673 44.6242 143.856 44.3447 143.981 44.0139L147.352 44.2363C147.181 45.0463 146.831 45.7535 146.3 46.3582C145.775 46.9571 145.097 47.4248 144.264 47.7613C143.437 48.0921 142.481 48.2575 141.398 48.2575Z" fill="#3D3E47"/>
<path d="M149.808 48.0009V34.8591H153.342V37.1521H153.478C153.718 36.3364 154.12 35.7204 154.685 35.304C155.249 34.882 155.9 34.6709 156.636 34.6709C156.818 34.6709 157.015 34.6823 157.226 34.7051C157.437 34.728 157.622 34.7593 157.782 34.7993V38.0334C157.611 37.982 157.374 37.9364 157.072 37.8965C156.77 37.8565 156.493 37.8366 156.242 37.8366C155.706 37.8366 155.227 37.9535 154.805 38.1874C154.388 38.4155 154.057 38.7349 153.812 39.1456C153.573 39.5563 153.453 40.0297 153.453 40.5659V48.0009H149.808Z" fill="#3D3E47"/>
<path d="M170.601 38.6066L167.264 38.8119C167.207 38.5267 167.084 38.2701 166.896 38.0419C166.708 37.808 166.46 37.6227 166.152 37.4858C165.849 37.3432 165.487 37.2719 165.065 37.2719C164.5 37.2719 164.024 37.3917 163.636 37.6312C163.248 37.8651 163.055 38.1788 163.055 38.5724C163.055 38.8861 163.18 39.1513 163.431 39.3681C163.682 39.5848 164.113 39.7588 164.723 39.89L167.101 40.3691C168.379 40.6315 169.332 41.0536 169.959 41.6353C170.586 42.2171 170.9 42.9815 170.9 43.9283C170.9 44.7896 170.646 45.5454 170.139 46.1956C169.637 46.8458 168.947 47.3535 168.068 47.7185C167.196 48.0779 166.189 48.2575 165.048 48.2575C163.308 48.2575 161.922 47.8953 160.89 47.171C159.863 46.4409 159.261 45.4484 159.085 44.1935L162.669 44.0053C162.778 44.5358 163.04 44.9407 163.457 45.2202C163.873 45.494 164.406 45.6309 165.057 45.6309C165.695 45.6309 166.209 45.5083 166.597 45.263C166.99 45.012 167.19 44.6898 167.196 44.2962C167.19 43.9654 167.05 43.6944 166.776 43.4834C166.502 43.2667 166.08 43.1012 165.51 42.9872L163.234 42.5337C161.951 42.277 160.995 41.8321 160.368 41.199C159.746 40.5659 159.435 39.7588 159.435 38.7777C159.435 37.9335 159.664 37.2063 160.12 36.596C160.582 35.9857 161.229 35.5151 162.062 35.1843C162.9 34.8534 163.882 34.688 165.005 34.688C166.665 34.688 167.971 35.0388 168.924 35.7404C169.882 36.442 170.441 37.3974 170.601 38.6066Z" fill="#3D3E47"/>
<path d="M176.943 48.249C176.104 48.249 175.357 48.1035 174.701 47.8126C174.045 47.516 173.526 47.0797 173.144 46.5036C172.767 45.9218 172.579 45.1974 172.579 44.3304C172.579 43.6003 172.713 42.9872 172.981 42.4909C173.249 41.9947 173.615 41.5954 174.077 41.2931C174.539 40.9908 175.063 40.7627 175.651 40.6086C176.244 40.4546 176.866 40.3463 177.516 40.2835C178.28 40.2037 178.896 40.1295 179.364 40.0611C179.832 39.9869 180.171 39.8786 180.382 39.736C180.593 39.5934 180.699 39.3823 180.699 39.1028V39.0515C180.699 38.5096 180.528 38.0904 180.185 37.7938C179.849 37.4972 179.37 37.3489 178.748 37.3489C178.092 37.3489 177.57 37.4943 177.182 37.7852C176.794 38.0704 176.538 38.4298 176.412 38.8633L173.041 38.5895C173.212 37.7909 173.549 37.1008 174.051 36.519C174.553 35.9315 175.2 35.4809 175.993 35.1672C176.792 34.8477 177.716 34.688 178.765 34.688C179.495 34.688 180.194 34.7736 180.861 34.9447C181.534 35.1158 182.13 35.381 182.649 35.7404C183.174 36.0997 183.588 36.5618 183.89 37.1264C184.192 37.6854 184.343 38.3556 184.343 39.137V48.0009H180.887V46.1785H180.784C180.573 46.5892 180.291 46.9514 179.937 47.2651C179.584 47.5731 179.159 47.8155 178.662 47.9923C178.166 48.1634 177.593 48.249 176.943 48.249ZM177.987 45.7336C178.523 45.7336 178.996 45.6281 179.407 45.417C179.817 45.2003 180.14 44.9094 180.374 44.5443C180.607 44.1793 180.724 43.7657 180.724 43.3037V41.9091C180.61 41.9833 180.453 42.0517 180.254 42.1145C180.06 42.1715 179.84 42.2257 179.595 42.277C179.35 42.3227 179.104 42.3654 178.859 42.4054C178.614 42.4396 178.392 42.471 178.192 42.4995C177.764 42.5622 177.39 42.662 177.071 42.7989C176.752 42.9358 176.504 43.1212 176.327 43.3551C176.15 43.5832 176.061 43.8684 176.061 44.2106C176.061 44.7069 176.241 45.0862 176.6 45.3486C176.966 45.6052 177.428 45.7336 177.987 45.7336ZM177.593 33.1651L179.407 29.2722H182.778L180.168 33.1651H177.593Z" fill="#3D3E47"/>
<path d="M187.171 48.0009V34.8591H190.705V37.1521H190.842C191.081 36.3364 191.483 35.7204 192.048 35.304C192.613 34.882 193.263 34.6709 193.999 34.6709C194.181 34.6709 194.378 34.6823 194.589 34.7051C194.8 34.728 194.986 34.7593 195.145 34.7993V38.0334C194.974 37.982 194.737 37.9364 194.435 37.8965C194.133 37.8565 193.856 37.8366 193.605 37.8366C193.069 37.8366 192.59 37.9535 192.168 38.1874C191.751 38.4155 191.421 38.7349 191.175 39.1456C190.936 39.5563 190.816 40.0297 190.816 40.5659V48.0009H187.171Z" fill="#3D3E47"/>
<path d="M197.03 48.0009V34.8591H200.674V48.0009H197.03ZM198.861 33.1651C198.319 33.1651 197.854 32.9854 197.466 32.6261C197.084 32.261 196.893 31.8247 196.893 31.317C196.893 30.8151 197.084 30.3845 197.466 30.0251C197.854 29.6601 198.319 29.4775 198.861 29.4775C199.402 29.4775 199.864 29.6601 200.247 30.0251C200.634 30.3845 200.828 30.8151 200.828 31.317C200.828 31.8247 200.634 32.261 200.247 32.6261C199.864 32.9854 199.402 33.1651 198.861 33.1651Z" fill="#3D3E47"/>
<path d="M209.532 48.2575C208.203 48.2575 207.053 47.9752 206.084 47.4105C205.12 46.8401 204.376 46.0473 203.851 45.032C203.326 44.011 203.064 42.8275 203.064 41.4813C203.064 40.1238 203.326 38.9374 203.851 37.9221C204.376 36.9011 205.12 36.1083 206.084 35.5436C207.053 34.9732 208.203 34.688 209.532 34.688C210.861 34.688 212.007 34.9732 212.971 35.5436C213.941 36.1083 214.688 36.9011 215.213 37.9221C215.738 38.9374 216 40.1238 216 41.4813C216 42.8275 215.738 44.011 215.213 45.032C214.688 46.0473 213.941 46.8401 212.971 47.4105C212.007 47.9752 210.861 48.2575 209.532 48.2575ZM209.549 45.4341C210.154 45.4341 210.658 45.263 211.063 44.9208C211.468 44.5728 211.773 44.0994 211.979 43.5005C212.19 42.9016 212.295 42.22 212.295 41.4557C212.295 40.6914 212.19 40.0097 211.979 39.4108C211.773 38.8119 211.468 38.3385 211.063 37.9906C210.658 37.6426 210.154 37.4687 209.549 37.4687C208.939 37.4687 208.425 37.6426 208.009 37.9906C207.598 38.3385 207.287 38.8119 207.076 39.4108C206.871 40.0097 206.768 40.6914 206.768 41.4557C206.768 42.22 206.871 42.9016 207.076 43.5005C207.287 44.0994 207.598 44.5728 208.009 44.9208C208.425 45.263 208.939 45.4341 209.549 45.4341Z" fill="#3D3E47"/>
<path d="M105.635 67.329V72.5358C105.635 73.8309 105.12 75.0729 104.204 75.9887C103.289 76.9044 102.047 77.4189 100.752 77.4189H65.2846V107.679H95.5448V97.5939H80.2529C78.9594 97.5939 77.7188 97.0808 76.8034 96.167C75.8879 95.2533 75.3723 94.0137 75.3698 92.7203V87.485H100.752C101.394 87.4856 102.03 87.613 102.624 87.8598C103.217 88.1066 103.756 88.468 104.21 88.9234C104.663 89.3787 105.023 89.919 105.267 90.5134C105.512 91.1077 105.637 91.7445 105.635 92.3872V112.886C105.633 114.18 105.118 115.422 104.203 116.337C103.288 117.253 102.046 117.768 100.752 117.769H60.0779C58.7832 117.768 57.5419 117.253 56.6264 116.337C55.7109 115.422 55.196 114.18 55.1948 112.886V72.2122C55.196 70.9175 55.7109 69.6762 56.6264 68.7607C57.5419 67.8452 58.7832 67.3303 60.0779 67.329H105.635Z" fill="#006633"/>
<path d="M160.815 67.329V72.5358C160.815 73.1768 160.69 73.8117 160.445 74.4041C160.2 74.9965 159.841 75.5349 159.388 75.9884C158.935 76.4419 158.397 76.8017 157.804 77.0471C157.212 77.2926 156.577 77.4189 155.936 77.4189H140.626V112.886C140.624 114.18 140.109 115.422 139.194 116.337C138.278 117.253 137.037 117.768 135.742 117.769H130.555V77.4189H115.263C113.968 77.4189 112.726 76.9044 111.81 75.9887C110.894 75.0729 110.38 73.8309 110.38 72.5358V67.329H160.815Z" fill="#006633"/>
<path d="M216 112.681V92.3872C216.002 91.7443 215.878 91.1073 215.634 90.5126C215.389 89.918 215.03 89.3774 214.576 88.922C214.123 88.4665 213.583 88.1051 212.99 87.8585C212.396 87.6119 211.759 87.485 211.117 87.485H175.65V77.4189H211.117C212.412 77.4189 213.654 76.9044 214.569 75.9887C215.485 75.0729 216 73.8309 216 72.5358V67.329H170.448C169.153 67.329 167.911 67.8435 166.995 68.7593C166.079 69.675 165.565 70.9171 165.565 72.2122V92.7203C165.565 94.0154 166.079 95.2574 166.995 96.1732C167.911 97.089 169.153 97.6034 170.448 97.6034H205.915V107.689H170.448C169.153 107.689 167.911 108.203 166.995 109.119C166.079 110.035 165.565 111.277 165.565 112.572V117.778H210.912L216 112.681Z" fill="#006633"/>
<path d="M5.40656 72.7216V115.846H9.19502L48.5313 76.51V72.7216H5.40656Z" fill="#FFFF00"/>
<path d="M10.0994 77.4189H45.7566C47 77.4177 48.1922 76.9235 49.0718 76.0447C49.9515 75.166 50.4469 73.9743 50.4494 72.7309V67.329H0V117.778H5.40665C6.02331 117.778 6.63393 117.657 7.20359 117.421C7.77325 117.185 8.29078 116.839 8.72661 116.402C9.16243 115.966 9.508 115.448 9.74355 114.878C9.9791 114.308 10.1 113.698 10.0994 113.081V77.4189Z" fill="#006633"/>
<path d="M30.2739 82.3401C27.4271 82.3354 24.6359 83.1286 22.2171 84.6298C19.7984 86.1311 17.8487 88.2802 16.5895 90.8333C15.3303 93.3865 14.8118 96.2415 15.093 99.0744C15.3742 101.907 16.4437 104.605 18.1803 106.86L39.5404 85.5003C36.8866 83.45 33.6274 82.3385 30.2739 82.3401Z" fill="#006699"/>
</svg>
